<svg width="20" height="20" viewBox="0 0 20 20" fill="none" xmlns="http://www.w3.org/2000/svg">
<path d="M16.6667 6.66667H17.6667V5.66667H16.6667V6.66667ZM16.6667 16.6667V17.6667H17.6667V16.6667H16.6667ZM3.33333 16.6667H2.33333V17.6667H3.33333V16.6667ZM3.33333 6.66667V5.66667H2.33333V6.66667H3.33333ZM2.5 3.33334V2.33334H1.5V3.33334H2.5ZM17.5 3.33334H18.5V2.33334H17.5V3.33334ZM17.5 6.66667V7.66667H18.5V6.66667H17.5ZM2.5 6.66667H1.5V7.66667H2.5V6.66667ZM8.33333 9H7.33333V11H8.33333V10V9ZM11.6667 11H12.6667V9H11.6667V10V11ZM16.6667 6.66667H15.6667V16.6667H16.6667H17.6667V6.66667H16.6667ZM16.6667 16.6667V15.6667H3.33333V16.6667V17.6667H16.6667V16.6667ZM3.33333 16.6667H4.33333V6.66667H3.33333H2.33333V16.6667H3.33333ZM3.33333 6.66667V7.66667H16.6667V6.66667V5.66667H3.33333V6.66667ZM2.5 3.33334V4.33334H17.5V3.33334V2.33334H2.5V3.33334ZM17.5 3.33334H16.5V6.66667H17.5H18.5V3.33334H17.5ZM17.5 6.66667V5.66667H2.5V6.66667V7.66667H17.5V6.66667ZM2.5 6.66667H3.5V3.33334H2.5H1.5V6.66667H2.5ZM8.33333 10V11H11.6667V10V9H8.33333V10Z" fill="#1F2937"/>
</svg>
