<svg width="20" height="20" viewBox="0 0 20 20" fill="none" xmlns="http://www.w3.org/2000/svg">
<path d="M5 17.5L4.00221 17.5665L4.06445 18.5H5V17.5ZM15 17.5V18.5H15.9356L15.9978 17.5665L15 17.5ZM2.5 4H1.5V6H2.5V5V4ZM17.5 6H18.5V4H17.5V5V6ZM4.16667 5L3.16888 5.06652L4.00221 17.5665L5 17.5L5.99779 17.4335L5.16445 4.93348L4.16667 5ZM5 17.5V18.5H15V17.5V16.5H5V17.5ZM15 17.5L15.9978 17.5665L16.8311 5.06652L15.8333 5L14.8355 4.93348L14.0022 17.4335L15 17.5ZM15.8333 5V4H4.16667V5V6H15.8333V5ZM2.5 5V6H4.16667V5V4H2.5V5ZM15.8333 5V6H17.5V5V4H15.8333V5ZM6.90897 4.58333L7.8359 4.95855C8.18279 4.10159 9.02234 3.5 10 3.5V2.5V1.5C8.17985 1.5 6.62412 2.62189 5.98203 4.20812L6.90897 4.58333ZM10 2.5V3.5C10.9777 3.5 11.8172 4.10159 12.1641 4.95855L13.091 4.58333L14.018 4.20812C13.3759 2.62189 11.8202 1.5 10 1.5V2.5Z" fill="#EF4343"/>
</svg>
