<svg width="20" height="20" viewBox="0 0 20 20" fill="none" xmlns="http://www.w3.org/2000/svg">
<path d="M16.6667 16.6667V17.6667H17.6667V16.6667H16.6667ZM3.33337 16.6667H2.33337V17.6667H3.33337V16.6667ZM3.33337 3.33333V2.33333H2.33337V3.33333H3.33337ZM9.16671 4.33333H10.1667V2.33333H9.16671V3.33333V4.33333ZM17.6667 10.8333V9.83333H15.6667V10.8333H16.6667H17.6667ZM10.8334 6.66667L10.1263 5.95956L9.83337 6.25245V6.66667H10.8334ZM10.8334 9.16667H9.83337V10.1667H10.8334V9.16667ZM13.3334 9.16667V10.1667H13.7476L14.0405 9.87377L13.3334 9.16667ZM15.8334 1.66667L16.5405 0.959559L15.8334 0.252452L15.1263 0.959559L15.8334 1.66667ZM18.3334 4.16667L19.0405 4.87377L19.7476 4.16667L19.0405 3.45956L18.3334 4.16667ZM16.6667 16.6667V15.6667H3.33337V16.6667V17.6667H16.6667V16.6667ZM3.33337 16.6667H4.33337V3.33333H3.33337H2.33337V16.6667H3.33337ZM3.33337 3.33333V4.33333H9.16671V3.33333V2.33333H3.33337V3.33333ZM16.6667 10.8333H15.6667V16.6667H16.6667H17.6667V10.8333H16.6667ZM10.8334 6.66667H9.83337V9.16667H10.8334H11.8334V6.66667H10.8334ZM10.8334 9.16667V10.1667H13.3334V9.16667V8.16667H10.8334V9.16667ZM10.8334 6.66667L11.5405 7.37377L16.5405 2.37377L15.8334 1.66667L15.1263 0.959559L10.1263 5.95956L10.8334 6.66667ZM15.8334 1.66667L15.1263 2.37377L17.6263 4.87377L18.3334 4.16667L19.0405 3.45956L16.5405 0.959559L15.8334 1.66667ZM18.3334 4.16667L17.6263 3.45956L12.6263 8.45956L13.3334 9.16667L14.0405 9.87377L19.0405 4.87377L18.3334 4.16667Z" fill="#1F2937"/>
</svg>
