<svg width="24" height="24" viewBox="0 0 24 24" fill="none" xmlns="http://www.w3.org/2000/svg">
<path d="M2 19H7.35165C8.86462 19 10.1408 17.8734 10.3285 16.3721L10.5785 14.3721C10.8023 12.5815 9.40615 11 7.60165 11H7.5L6.79566 10.5304C6.2889 10.1926 5.66315 10.0842 5.07229 10.2319C4.39889 10.4003 3.8473 10.8818 3.58951 11.5262L3 13H2M22 19H16.6483C15.1354 19 13.8592 17.8734 13.6715 16.3721L13.4215 14.3721C13.1977 12.5815 14.5939 11 16.3983 11H16.5L17.2043 10.5304C17.7111 10.1926 18.3369 10.0842 18.9277 10.2319C19.6011 10.4003 20.1527 10.8818 20.4105 11.5262L21 13H22M12 6V4M8.14718 7.40371L6.86161 5.87162M15.8623 7.40367L17.1479 5.87158" stroke="white" stroke-width="2" stroke-linecap="square" stroke-linejoin="round"/>
</svg>
