<svg width="23" height="18" viewBox="0 0 23 18" fill="none" xmlns="http://www.w3.org/2000/svg">
<path d="M4.5 1V0H3.5V1H4.5ZM4.5 4.5L5.16999 5.24237L5.5 4.94453V4.5H4.5ZM3 6.93505V7.93505H3.69926L3.93926 7.27826L3 6.93505ZM1 6.93505V5.93505H0V6.93505H1ZM1 12H0V13H1V12ZM3 12L3.86571 11.4995L3.57693 11H3V12ZM5 14H6V13.4248L5.5028 13.1356L5 14ZM5 17H4V18H5V17ZM9 17V18H10V17H9ZM9 15V14H8V15H9ZM13 15H14V14H13V15ZM13 17H12V18H13V17ZM17 17V18H18V17H17ZM17 13.463L16.3322 12.7187L16 13.0167V13.463H17ZM8.474 3.00004L7.57494 3.43788L7.84871 4.00004H8.474V3.00004ZM22.597 8.49932L22.0963 7.63371L20.3651 8.63517L20.8658 9.50077L21.7314 9.00005L22.597 8.49932ZM19.4174 10.8137C18.9686 10.4918 18.3439 10.5947 18.022 11.0435C17.7001 11.4923 17.8029 12.117 18.2517 12.4389L18.8346 11.6263L19.4174 10.8137ZM7.25 6.75005C6.69772 6.75005 6.25 7.19776 6.25 7.75005C6.25 8.30233 6.69772 8.75005 7.25 8.75005V7.75005V6.75005ZM7.26 8.75005C7.81228 8.75005 8.26 8.30233 8.26 7.75005C8.26 7.19776 7.81228 6.75005 7.26 6.75005V7.75005V8.75005ZM4.5 1H3.5V4.5H4.5H5.5V1H4.5ZM4.5 4.5L3.83001 3.75763C2.93677 4.56378 2.42253 5.60172 2.06074 6.59184L3 6.93505L3.93926 7.27826C4.25347 6.41837 4.62723 5.73222 5.16999 5.24237L4.5 4.5ZM3 6.93505V5.93505H1V6.93505V7.93505H3V6.93505ZM1 6.93505H0V12H1H2V6.93505H1ZM1 12V13H3V12V11H1V12ZM3 12L2.13429 12.5006C2.74794 13.5619 3.44311 14.2513 4.4972 14.8644L5 14L5.5028 13.1356C4.74489 12.6947 4.30206 12.2542 3.86571 11.4995L3 12ZM5 14H4V17H5H6V14H5ZM5 17V18H9V17V16H5V17ZM9 17H10V15H9H8V17H9ZM9 15V16H13V15V14H9V15ZM13 15H12V17H13H14V15H13ZM13 17V18H17V17V16H13V17ZM17 17H18V13.463H17H16V17H17ZM17 13.463L17.6678 14.2074C19.0931 12.9287 20 11.0737 20 9H19H18C18 10.4763 17.3569 11.7994 16.3322 12.7187L17 13.463ZM19 9H20C20 5.13371 16.8663 2.00004 13 2.00004V3.00004V4.00004C15.7617 4.00004 18 6.23829 18 9H19ZM13 3.00004V2.00004H8.474V3.00004V4.00004H13V3.00004ZM8.474 3.00004C9.37306 2.56221 9.37279 2.56167 9.37253 2.56113C9.37243 2.56093 9.37216 2.56038 9.37197 2.55999C9.37159 2.55922 9.3712 2.55841 9.37078 2.55757C9.36996 2.5559 9.36907 2.5541 9.36811 2.55217C9.36619 2.54832 9.36399 2.54398 9.36152 2.53915C9.35659 2.52949 9.35054 2.51789 9.34334 2.50449C9.32895 2.4777 9.30994 2.44362 9.286 2.40333C9.23817 2.32282 9.17031 2.21689 9.07994 2.09426C8.89951 1.84944 8.62653 1.53429 8.24068 1.22236C7.45581 0.587848 6.24328 0 4.5 0V1V2C5.75672 2 6.53119 2.41217 6.98332 2.77768C7.21597 2.96576 7.37399 3.15062 7.46994 3.28081C7.51775 3.34568 7.54942 3.39601 7.56658 3.42489C7.57513 3.43928 7.57997 3.44817 7.58132 3.45068C7.58199 3.45192 7.58177 3.45156 7.58071 3.44947C7.58017 3.44842 7.57942 3.44694 7.57846 3.44502C7.57798 3.44405 7.57745 3.44298 7.57686 3.44179C7.57657 3.44119 7.57626 3.44057 7.57594 3.43992C7.57578 3.43959 7.57553 3.43908 7.57545 3.43892C7.5752 3.4384 7.57494 3.43788 8.474 3.00004ZM21.999 10H20.999C20.999 10.5523 20.5512 11 19.999 11V12V13C21.6558 13 22.999 11.6569 22.999 10H21.999ZM21.7314 9.00005L20.8658 9.50077C20.9503 9.64684 20.999 9.81624 20.999 10H21.999H22.999C22.999 9.45527 22.8528 8.9416 22.597 8.49932L21.7314 9.00005ZM19.999 12V11C19.7805 11 19.5811 10.9311 19.4174 10.8137L18.8346 11.6263L18.2517 12.4389C18.7439 12.792 19.3486 13 19.999 13V12ZM7.5 7.75005H6.5C6.5 7.33583 6.83579 7.00005 7.25 7.00005V8.00005V9.00005C7.94036 9.00005 8.5 8.4404 8.5 7.75005H7.5ZM7.25 8.00005V7.00005C7.66421 7.00005 8 7.33583 8 7.75005H7H6C6 8.4404 6.55964 9.00005 7.25 9.00005V8.00005ZM7 7.75005H8C8 8.16426 7.66421 8.50005 7.25 8.50005V7.50005V6.50005C6.55964 6.50005 6 7.05969 6 7.75005H7ZM7.25 7.50005V8.50005C6.83579 8.50005 6.5 8.16426 6.5 7.75005H7.5H8.5C8.5 7.05969 7.94036 6.50005 7.25 6.50005V7.50005ZM7.25 7.75005V8.75005H7.26V7.75005V6.75005H7.25V7.75005Z" fill="#020617"/>
</svg>
